# Blender v2.79 (sub 0) OBJ File: 'Framed Small.blend'
# www.blender.org
mtllib Framed Small.mtl
o Framed_Small_Cube.001
v 0.219961 2.807327 0.004340
v 0.219961 -0.008661 0.004340
v 0.303203 2.807327 0.117662
v 0.303203 -0.008661 0.117662
v 0.106639 -0.008661 0.087583
v 0.189882 -0.008661 0.200905
v 0.506843 -0.008661 0.394883
v 0.506843 2.807327 0.394883
v 0.393522 -0.008661 0.478126
v 0.113321 2.815987 -0.083242
v 0.113321 -0.000000 -0.083242
v -0.000000 2.815987 0.000000
v -0.000000 -0.000000 0.000000
v 0.083243 2.815987 0.113322
v 0.083243 -0.000000 0.113322
v 0.083243 2.688344 0.113322
v 0.083243 0.127643 0.113322
v 0.196564 2.815987 0.030079
v 0.412456 2.815987 0.561492
v 0.525778 2.815987 0.478249
v 0.412456 2.688344 0.561492
v 0.525778 2.688344 0.478249
v 0.525778 0.019705 0.478249
v 0.412456 0.019705 0.561492
v 0.345715 2.688344 0.470635
v 0.149984 2.688344 0.204180
v 0.345715 0.019705 0.470635
v 0.196564 2.807327 0.030079
v 0.192484 2.807327 0.024524
v 0.192484 -0.000000 0.024524
v 0.106639 -0.000000 0.087583
v 0.275726 2.807327 0.137846
v 0.373192 0.019705 0.450451
v 0.189882 2.688344 0.200905
v 0.479366 0.019705 0.415067
v 0.393522 0.019705 0.478126
v 0.479366 2.688344 0.415067
v 0.479366 2.807327 0.415067
v 0.177461 2.688344 0.183996
v 0.110720 2.688344 0.093138
v 0.110720 -0.000000 0.093138
v 0.110720 0.127643 0.093138
v 0.373192 2.688344 0.450451
vt 0.620859 0.578742
vt 0.620859 0.410812
vt 0.465644 0.410812
vt 0.465644 0.578742
vt 0.620859 0.000000
vt 0.465644 0.000000
vt 0.962365 0.167930
vt 0.962365 0.000000
vt 0.924730 0.000000
vt 0.924730 0.008232
vt 0.924730 0.167930
vt 0.620859 0.410812
vt 0.620859 0.578742
vt 0.776074 0.578742
vt 0.776074 0.410812
vt 0.776074 0.746673
vt 0.738439 0.746673
vt 0.738439 0.753768
vt 0.738439 0.912911
vt 0.620859 0.912911
vt 0.620859 0.914603
vt 0.776074 0.914603
vt 0.924730 0.410812
vt 0.924730 0.000000
vt 0.923167 0.000000
vt 0.923167 0.041012
vt 0.776074 0.041012
vt 0.776074 0.410812
vt 0.776074 0.000000
vt 0.620859 0.000000
vt 0.155215 0.167930
vt 0.155215 0.000000
vt 0.000000 0.000000
vt 0.000000 0.167930
vt 0.007036 0.167930
vt 0.148179 0.167930
vt 0.465644 0.746673
vt 0.620859 0.746673
vt 0.620859 0.578742
vt 0.465644 0.578742
vt 0.155215 0.664140
vt 0.155215 0.832070
vt 0.310430 0.832070
vt 0.310430 0.664140
vt 0.620859 0.914603
vt 0.620859 0.746673
vt 0.465644 0.746673
vt 0.465644 0.906371
vt 0.583224 0.906371
vt 0.583224 0.914603
vt 0.465644 0.832070
vt 0.465644 0.664140
vt 0.465167 0.664140
vt 0.465167 0.672372
vt 0.310430 0.672372
vt 0.310430 0.832070
vt 0.000000 0.832070
vt 0.000000 1.000000
vt 0.007036 1.000000
vt 0.007036 0.832070
vt 0.310429 0.000000
vt 0.155215 0.000000
vt 0.465644 0.000000
vt 0.458609 0.000000
vt 0.458609 0.093629
vt 0.465167 0.093629
vt 0.465167 0.504442
vt 0.148179 0.302571
vt 0.148179 0.697429
vt 0.148179 0.832070
vt 0.155215 0.832070
vt 0.962365 0.000000
vt 0.962365 0.394857
vt 1.000000 0.394857
vt 1.000000 0.369800
vt 1.000000 0.000000
vt 0.001086 0.697429
vt 0.001086 0.832070
vt 0.154129 1.000000
vt 0.154129 0.832070
vt 0.311516 0.000000
vt 0.311516 0.093629
vt 0.924253 0.578742
vt 0.924730 0.578742
vt 0.776074 0.435870
vt 0.776074 0.570511
vt 0.917217 0.570511
vt 0.924253 0.570511
vt 0.738439 0.746673
vt 0.776074 0.746673
vt 0.620859 0.579259
vt 0.738439 0.579259
vt 0.862613 0.578742
vt 0.776074 0.578742
vt 0.776074 0.746673
vt 0.900520 0.746672
vt 0.900520 0.705954
vt 0.862613 0.705954
vt 0.924730 0.578742
vt 0.962365 0.578742
vt 0.776074 0.754285
vt 0.813708 0.754285
vt 0.813708 0.746673
vt 0.776074 0.746673
vt 0.962365 0.529499
vt 1.000000 0.529499
vt 0.776074 0.906991
vt 0.813709 0.906991
vt 0.813709 0.905816
vt 0.851343 0.905816
vt 0.851343 0.746673
vt 0.813709 0.746673
vn 0.8059 0.0000 -0.5920
vn 0.0000 1.0000 0.0000
vn 0.0000 -1.0000 -0.0000
vn 0.5920 0.0000 0.8059
vn -0.8059 -0.0000 0.5920
vn -0.5920 0.0000 -0.8059
usemtl Framed_Small
s off
f 1/1/1 3/2/1 4/3/1 2/4/1
f 3/2/1 8/5/1 7/6/1 4/3/1
f 3/7/2 1/8/2 29/9/2 28/10/2 32/11/2
f 6/12/3 5/13/3 2/14/3 4/15/3
f 8/16/4 38/17/4 37/18/4 35/19/4 36/20/4 9/21/4 7/22/4
f 6/23/5 9/24/5 36/25/5 33/26/5 43/27/5 34/28/5
f 4/15/3 7/29/3 9/30/3 6/12/3
f 14/31/5 12/32/5 13/33/5 15/34/5 17/35/5 16/36/5
f 12/37/6 10/38/6 11/39/6 13/40/6
f 18/41/2 10/42/2 12/43/2 14/44/2
f 15/45/3 13/46/3 11/47/3 30/48/3 31/49/3 41/50/3
f 10/51/1 18/52/1 28/53/1 29/54/1 30/55/1 11/56/1
f 20/57/4 19/58/4 21/59/4 22/60/4
f 14/44/2 19/61/2 20/62/2 18/41/2
f 18/52/1 20/63/1 22/64/1 37/65/1 38/66/1 32/67/1 28/53/1
f 16/36/5 26/68/5 25/69/5 21/70/5 19/71/5 14/31/5
f 25/72/3 26/73/3 39/74/3 34/75/3 43/76/3
f 25/69/5 27/77/5 24/78/5 21/70/5
f 21/59/4 24/79/4 23/80/4 22/60/4
f 22/64/1 23/81/1 35/82/1 37/65/1
f 31/83/5 5/84/5 6/23/5 34/28/5 39/85/5 40/86/5 42/87/5 41/88/5
f 29/89/6 1/90/6 2/14/6 5/13/6 31/91/6 30/92/6
f 35/93/3 23/94/3 24/95/3 27/96/3 33/97/3 36/98/3
f 38/99/2 8/100/2 3/7/2 32/11/2
f 42/101/4 17/102/4 15/103/4 41/104/4
f 39/74/3 26/73/3 16/105/3 40/106/3
f 40/107/4 16/108/4 17/102/4 42/101/4
f 33/109/6 27/110/6 25/111/6 43/112/6
